<svg width="331" height="712" viewBox="0 0 331 712" fill="none" xmlns="http://www.w3.org/2000/svg">
<path d="M330 525.022L329 570.022L328.999 570.076L328.991 570.13L324.991 600.63L324.984 600.683L324.973 600.733L318.973 625.733L318.962 625.778L318.946 625.822L310.446 650.822L310.417 650.911L310.37 650.992L295.37 677.492L295.332 677.56L295.285 677.62L280.285 696.62L280.196 696.732L280.079 696.815L264.579 707.815L264.437 707.917L264.268 707.964L255.268 710.464L255.007 710.536L254.745 710.467L245.245 707.967L245.084 707.925L244.945 707.832L237.284 702.725L237.175 702.564L230.675 693.064L230.632 693.002L230.599 692.933L224.599 680.433L224.55 680.331L224.524 680.221L221.031 664.751L211.036 632.767L195.536 576.767H195.535L178.051 520.316L161.073 472.877L137.086 413.909L116.61 373.956L116.604 373.946L116.6 373.936L109.108 358.454L100.146 342.52L73.1826 300.578L46.707 266.109V266.108L22.2158 235.12L22.1992 235.1L22.1836 235.078L13.6836 223.078L13.6484 223.027L13.6182 222.973L13.5977 222.934L6.12598 209.485L6.33105 209.371L6.11816 208.973L6.07324 208.888L6.04492 208.797L1.54492 194.297L1.50488 194.168L1.50098 194.033L1.00098 179.033L1 179.017V164.932L1.00977 164.863L3.00977 150.363L3.0127 150.337L3.01855 150.311L14.0186 93.3105L25.5166 30.8193L25.5391 30.6963L25.5908 30.583L31.0908 18.583L31.1602 18.4336L31.2734 18.3135L39.7734 9.31348L39.8574 9.22363L39.9609 9.1582L52.4609 1.1582L52.707 1H69.0371L69.0742 1.00293L102.574 3.50293L102.641 3.50781L102.705 3.52148L143.205 12.0215L143.231 12.0264L143.257 12.0332L192.257 25.0332L192.311 25.0479L192.363 25.0684L221.863 36.5684L222.219 36.707L222.392 37.0469L238.892 69.5469L238.905 69.5752L238.918 69.6035L256.418 110.104L256.43 110.131L269.93 144.131L269.939 144.157L284.448 187.684L284.453 187.697L284.457 187.712L295.457 224.212L295.467 224.242L295.474 224.273L305.474 267.273L305.477 267.284L305.479 267.294L313.479 305.294L313.484 305.323L313.489 305.353L318.489 338.853L318.491 338.865L322.991 371.865L322.994 371.892L322.997 371.919L326.497 414.919V414.923L329.997 459.923L330 459.961V525.022Z" stroke="black" stroke-width="2"/>
</svg>
