<svg width="332" height="715" viewBox="0 0 332 715" fill="none" xmlns="http://www.w3.org/2000/svg">
<path d="M330.5 192.169L330.444 192.328L322.444 215.328L322.409 215.431L322.353 215.522L307.353 240.022L307.316 240.082L307.272 240.136L260.815 296.582L226.878 352.979L203.396 395.945L171.931 465.368L131.458 589.286L100.958 691.286L100.904 691.465L100.791 691.612L88.791 707.112L88.6826 707.251L88.5342 707.346L79.0342 713.346L78.5957 713.622L78.1172 713.424L63.4756 707.365L63.3574 707.267L44.749 691.676L44.6699 691.559L26.1699 664.059L26.1064 663.964L26.0664 663.857L10.5664 623.357L10.5322 623.269L10.5156 623.175L1.01562 569.675L1 569.588V494.976L1.00098 494.95L6.50098 383.95L6.50391 383.901L6.51074 383.852L20.5107 290.352L20.5166 290.317L20.5234 290.284L36.0234 220.284L36.0322 220.244L36.0439 220.205L60.5439 140.705L60.5625 140.646L60.5879 140.59L103.088 46.0898L103.141 45.9717L103.222 45.8721L113.722 32.8721L113.908 32.6406L114.19 32.5488L154.19 19.5488L154.253 19.5283L154.318 19.5166L194.818 12.0166L234.815 4.51758L234.847 4.51172L234.878 4.50781L263.378 1.00781L263.438 1H280.811L281.066 1.17578L297.066 12.1758L297.246 12.2988L297.357 12.4854L301.857 19.9854L301.894 20.0459L301.921 20.1104L307.421 33.1104L307.467 33.2197L307.486 33.3359L330.486 171.836L330.5 171.918V192.169Z" stroke="black" stroke-width="2"/>
</svg>
