<svg width="892" height="555" viewBox="0 0 892 555" fill="none" xmlns="http://www.w3.org/2000/svg">
<path d="M644.538 0.27211L648.022 29.1471L655.428 47.9098L675.334 75.778L697.32 102.76L697.337 102.783L697.354 102.805L726.354 142.805L726.377 142.838L726.399 142.873L755.899 191.373L755.923 191.412L755.943 191.454L765.943 211.954L765.947 211.962L796.947 276.962L796.967 277.006L796.984 277.05L818.984 337.55L818.996 337.582L819.005 337.614L845.501 429.101L853.489 452.064L853.501 452.099L853.511 452.135L860.011 476.635L866.997 501.589L874.931 523.406L881.286 531.716L888.225 538.16L889.641 539.474L887.749 539.871L825.749 552.871L825.28 552.969L824.909 552.664L816.409 545.664L816.307 545.581L816.231 545.473L808.731 534.973L808.667 534.885L786.624 483.285L786.612 483.256L786.601 483.225L744.101 362.725V362.724L728.169 318.911L717.33 306.593L704.986 295.237L690.756 288.858L675.464 286.392H206.24L190.543 292.768L176.231 303.627L167.385 313.947L159.965 328.786L133.485 401.733L108.99 472.718L108.976 472.758L108.958 472.798L81.4584 534.798L81.4145 534.897L81.3491 534.985L74.3491 544.485L74.2885 544.569L74.2114 544.637L64.7114 553.137L64.3393 553.47L63.85 553.373L3.85883 541.473L3.83539 541.505L3.77289 541.457L3.35004 541.373L1.77191 541.06L2.32758 540.337L2.25336 540.28L14.1733 524.881L20.5991 509.56L39.5834 443.616L57.5834 381.116L57.5903 381.092L57.5971 381.071L75.5971 328.071L87.5942 291.58L87.6098 291.533L87.6293 291.488L104.629 252.988L104.637 252.972L120.137 219.472L120.154 219.436L120.173 219.402L142.673 179.402L142.685 179.38L142.7 179.358L164.2 145.358L164.21 145.34L164.221 145.324L188.721 109.824L188.743 109.793L188.767 109.763L218.236 73.3014L237.647 43.9362L245.052 24.1862L246.045 3.8434L247.987 3.55824L256.435 27.4127L268.727 43.6383L286.946 54.9635L303.675 59.3922H592.827L615.458 49.0592L631.718 32.3063L639.09 17.5641L642.564 0.195938L644.538 0.27211Z" stroke="black" stroke-width="2"/>
</svg>
