<svg width="112" height="107" viewBox="0 0 112 107" fill="none" xmlns="http://www.w3.org/2000/svg">
<path d="M110.589 0.5L110.105 1.2666L92.105 29.7666L91.9576 30H16.8853L16.7427 29.7393L1.24273 1.23926L0.841366 0.5H110.589ZM70.6822 77.667L67.5826 81.7998L67.4976 81.9121L67.3677 81.9639L62.3677 83.9639L62.1724 84.043L57.4791 81.957L57.1822 81.8252V60.8086L55.6441 60.04L53.19 60.8574L54.1822 104.988V98.1211L54.5474 98.0186L67.0142 94.5273L74.4996 91.2529L73.8736 90H69.2681L57.8462 93.9727L57.7671 94H54.6822V93H55.6304L55.1851 88.5498L55.147 88.1699L62.0025 85.5332L62.0894 85.5H72.7173L72.7525 85.5049L79.7525 86.5049L79.8336 86.5166L85.0914 89.1455L86.1568 92.3418L86.273 92.6924L85.9732 92.9072L82.4732 95.4072L82.4205 95.4443L82.3599 95.4678L57.3599 104.968L57.274 105H54.1822L54.1968 105.659L53.5504 105.482L42.5504 102.482L42.1822 102.382V98.9287L41.7584 98.9941L35.2584 99.9941L35.1939 100.004L35.1295 99.9971L25.6295 98.9971L25.6011 98.9941L25.5738 98.9883L21.0738 97.9883L20.9898 97.9697L20.9175 97.9238L16.9175 95.4238L16.6822 95.2773V91.1494L17.0113 91.0303L39.0113 83.0303L39.6822 82.7861V89.8652L39.3345 89.9766L27.4351 93.7842L28.439 95.458L35.0904 94.5078L41.5699 93.0127L42.1822 92.8711V50.3242L42.8287 50.5215L60.8287 56.0215L60.8892 56.041L60.9439 56.0742L67.4439 60.0742L67.5484 60.1377L67.6109 60.2432L70.6109 65.2432L70.6822 65.3613V77.667Z" stroke="black"/>
</svg>
