<svg width="433" height="233" viewBox="0 0 433 233" fill="none" xmlns="http://www.w3.org/2000/svg">
<path d="M216.138 1.00244L396.638 8.00244L396.791 8.0083L396.936 8.06006L423.436 17.5601L423.88 17.7192L424.04 18.1636L431.136 37.9302L431.077 38.2075L397.577 197.208L397.543 197.372L397.456 197.516L385.456 217.516L385.317 217.748L385.08 217.878L359.58 231.878L359.355 232.001H76.4462L76.3017 231.957L53.8017 224.957L53.5048 224.864L53.3124 224.62L34.8124 201.12L34.665 200.932L34.6181 200.699L1.1181 34.1987L1.04974 33.856L1.20892 33.5454L11.2089 14.0454L11.4072 13.6577L11.8271 13.5386L31.4413 8.00635L31.5605 8.00244L216.06 1.00244L216.099 1.00049L216.138 1.00244Z" stroke="black" stroke-width="2"/>
</svg>
