<svg width="60" height="27" viewBox="0 0 60 27" fill="none" xmlns="http://www.w3.org/2000/svg">
<path d="M29.9561 1.00653C37.7262 1.11266 44.7902 2.49766 49.9369 4.68893C52.5079 5.78354 54.6491 7.09968 56.1566 8.60041C57.667 10.1041 58.6005 11.8579 58.5743 13.7843C58.548 15.7107 57.5668 17.4384 56.0159 18.9002C54.468 20.3593 52.2917 21.6164 49.6918 22.6404C44.487 24.6903 37.388 25.8818 29.6178 25.7757C21.8476 25.6696 14.7836 24.2846 9.6369 22.0933C7.06614 20.9987 4.92569 19.6825 3.41826 18.1818C1.90779 16.6781 0.974234 14.9244 1.00055 12.998C1.02693 11.0716 2.00802 9.34387 3.55893 7.88203C5.1068 6.42317 7.28245 5.16578 9.88209 4.14186C15.0868 2.09194 22.1859 0.900437 29.9561 1.00653Z" stroke="black" stroke-width="2"/>
</svg>
